# xmcd CD database file
# Copyright (C) 1993-1998 Ti Kan
#
# Track frame offsets:
#	182
#	12282
#	32385
#	50210
#	70002
#	87890
#	102977
#	122770
#	157732
#
# Disc length: 2352 seconds
#
# Revision: 1
# Processed by: cddbd v1.4b41PL1 Copyright (c) Steve Scherf et al.
# Submitted via: xmcd 2.2 PL0
#
DISCID=66092e09
DTITLE=Eddie Boyd - A Sad Day
DYEAR=1900
DGENRE=
TTITLE0=My Mood
TTITLE1=Let It Be Me
TTITLE2=It's Too Bad
TTITLE3=On The Sunny Side Of The Street
TTITLE4=Love Sick Mind
TTITLE5=The Charm
TTITLE6=My Lady
TTITLE7=A Sad Day
TTITLE8=In The Dark
EXTD=
EXTT0=
EXTT1=
EXTT2=
EXTT3=
EXTT4=
EXTT5=
EXTT6=
EXTT7=
EXTT8=
PLAYORDER=
